<mxfile host="app.diagrams.net" modified="2024-06-03T15:36:59.545Z" agent="Mozilla/5.0 (Windows NT 10.0; Win64; x64; rv:126.0) Gecko/20100101 Firefox/126.0" etag="86nPFHJWxdxCh7GSuey_" version="24.4.6" type="device">
  <diagram name="Page-1" id="Jyr1BTPTW6WzNSuiz5Wk">
    <mxGraphModel dx="2594" dy="1047" grid="1" gridSize="10" guides="1" tooltips="1" connect="1" arrows="1" fold="1" page="1" pageScale="1" pageWidth="850" pageHeight="1100" math="0" shadow="0">
      <root>
        <mxCell id="0" />
        <mxCell id="1" parent="0" />
        <mxCell id="KQXaLnufDHrNjY7VKexa-1" value="Model" style="swimlane;fontStyle=1;align=center;verticalAlign=top;childLayout=stackLayout;horizontal=1;startSize=26;horizontalStack=0;resizeParent=1;resizeParentMax=0;resizeLast=0;collapsible=1;marginBottom=0;whiteSpace=wrap;html=1;" vertex="1" parent="1">
          <mxGeometry x="150" y="110" width="200" height="210" as="geometry" />
        </mxCell>
        <mxCell id="KQXaLnufDHrNjY7VKexa-2" value="&lt;div&gt;+name: string&lt;/div&gt;&lt;div&gt;+filePath:string&lt;/div&gt;&lt;div&gt;+gravity: int&lt;br&gt;&lt;/div&gt;&lt;div&gt;+orginMass: double&lt;/div&gt;&lt;div&gt;+initialState:state&lt;/div&gt;&lt;div&gt;&lt;br&gt;&lt;/div&gt;" style="text;strokeColor=none;fillColor=none;align=left;verticalAlign=top;spacingLeft=4;spacingRight=4;overflow=hidden;rotatable=0;points=[[0,0.5],[1,0.5]];portConstraint=eastwest;whiteSpace=wrap;html=1;" vertex="1" parent="KQXaLnufDHrNjY7VKexa-1">
          <mxGeometry y="26" width="200" height="94" as="geometry" />
        </mxCell>
        <mxCell id="KQXaLnufDHrNjY7VKexa-3" value="" style="line;strokeWidth=1;fillColor=none;align=left;verticalAlign=middle;spacingTop=-1;spacingLeft=3;spacingRight=3;rotatable=0;labelPosition=right;points=[];portConstraint=eastwest;strokeColor=inherit;" vertex="1" parent="KQXaLnufDHrNjY7VKexa-1">
          <mxGeometry y="120" width="200" height="8" as="geometry" />
        </mxCell>
        <mxCell id="KQXaLnufDHrNjY7VKexa-4" value="&lt;div&gt;+ setName(name)&lt;/div&gt;&lt;div&gt;+set_gravity(SimTK::Vec3())&lt;/div&gt;&lt;div&gt;+getTotalMass(initialState):double&lt;/div&gt;&lt;div&gt;+initSystem(Model): state&lt;/div&gt;&lt;div&gt;+model(filePath): Model&lt;br&gt;&lt;/div&gt;&lt;div&gt;&lt;br&gt;&lt;/div&gt;&lt;div&gt;&lt;br&gt;&lt;/div&gt;" style="text;strokeColor=none;fillColor=none;align=left;verticalAlign=top;spacingLeft=4;spacingRight=4;overflow=hidden;rotatable=0;points=[[0,0.5],[1,0.5]];portConstraint=eastwest;whiteSpace=wrap;html=1;" vertex="1" parent="KQXaLnufDHrNjY7VKexa-1">
          <mxGeometry y="128" width="200" height="82" as="geometry" />
        </mxCell>
        <mxCell id="KQXaLnufDHrNjY7VKexa-10" value="Scaletool" style="swimlane;fontStyle=1;align=center;verticalAlign=top;childLayout=stackLayout;horizontal=1;startSize=26;horizontalStack=0;resizeParent=1;resizeParentMax=0;resizeLast=0;collapsible=1;marginBottom=0;whiteSpace=wrap;html=1;" vertex="1" parent="1">
          <mxGeometry x="520" y="140" width="200" height="150" as="geometry" />
        </mxCell>
        <mxCell id="KQXaLnufDHrNjY7VKexa-11" value="&lt;div&gt;+ModelPath:string&lt;/div&gt;&lt;div&gt;&lt;br&gt;&lt;/div&gt;&lt;div&gt;&lt;br&gt;&lt;/div&gt;" style="text;strokeColor=none;fillColor=none;align=left;verticalAlign=top;spacingLeft=4;spacingRight=4;overflow=hidden;rotatable=0;points=[[0,0.5],[1,0.5]];portConstraint=eastwest;whiteSpace=wrap;html=1;" vertex="1" parent="KQXaLnufDHrNjY7VKexa-10">
          <mxGeometry y="26" width="200" height="54" as="geometry" />
        </mxCell>
        <mxCell id="KQXaLnufDHrNjY7VKexa-12" value="" style="line;strokeWidth=1;fillColor=none;align=left;verticalAlign=middle;spacingTop=-1;spacingLeft=3;spacingRight=3;rotatable=0;labelPosition=right;points=[];portConstraint=eastwest;strokeColor=inherit;" vertex="1" parent="KQXaLnufDHrNjY7VKexa-10">
          <mxGeometry y="80" width="200" height="8" as="geometry" />
        </mxCell>
        <mxCell id="KQXaLnufDHrNjY7VKexa-13" value="&lt;div&gt;+ScaleTool(ModelPath):Scale Tool&lt;/div&gt;&lt;div&gt;+ getModelScaler(): ModelScaler&lt;/div&gt;" style="text;strokeColor=none;fillColor=none;align=left;verticalAlign=top;spacingLeft=4;spacingRight=4;overflow=hidden;rotatable=0;points=[[0,0.5],[1,0.5]];portConstraint=eastwest;whiteSpace=wrap;html=1;" vertex="1" parent="KQXaLnufDHrNjY7VKexa-10">
          <mxGeometry y="88" width="200" height="62" as="geometry" />
        </mxCell>
        <mxCell id="KQXaLnufDHrNjY7VKexa-14" value="ModelScaler" style="swimlane;fontStyle=1;align=center;verticalAlign=top;childLayout=stackLayout;horizontal=1;startSize=26;horizontalStack=0;resizeParent=1;resizeParentMax=0;resizeLast=0;collapsible=1;marginBottom=0;whiteSpace=wrap;html=1;" vertex="1" parent="1">
          <mxGeometry x="640" y="390" width="200" height="170" as="geometry" />
        </mxCell>
        <mxCell id="KQXaLnufDHrNjY7VKexa-15" value="&lt;div&gt;+scaleSet: ScaleSet&lt;/div&gt;&lt;div&gt;&lt;div&gt;+ModelPath:string&lt;/div&gt;&lt;div&gt;+&amp;amp;model: &amp;amp;Model&lt;/div&gt;&lt;div&gt;+finalMass: double&lt;br&gt;&lt;/div&gt;&lt;/div&gt;&lt;div&gt;&lt;br&gt;&lt;/div&gt;" style="text;strokeColor=none;fillColor=none;align=left;verticalAlign=top;spacingLeft=4;spacingRight=4;overflow=hidden;rotatable=0;points=[[0,0.5],[1,0.5]];portConstraint=eastwest;whiteSpace=wrap;html=1;" vertex="1" parent="KQXaLnufDHrNjY7VKexa-14">
          <mxGeometry y="26" width="200" height="74" as="geometry" />
        </mxCell>
        <mxCell id="KQXaLnufDHrNjY7VKexa-16" value="" style="line;strokeWidth=1;fillColor=none;align=left;verticalAlign=middle;spacingTop=-1;spacingLeft=3;spacingRight=3;rotatable=0;labelPosition=right;points=[];portConstraint=eastwest;strokeColor=inherit;" vertex="1" parent="KQXaLnufDHrNjY7VKexa-14">
          <mxGeometry y="100" width="200" height="8" as="geometry" />
        </mxCell>
        <mxCell id="KQXaLnufDHrNjY7VKexa-17" value="+processModel(&amp;amp;model, filePath, finalMasss):bool" style="text;strokeColor=none;fillColor=none;align=left;verticalAlign=top;spacingLeft=4;spacingRight=4;overflow=hidden;rotatable=0;points=[[0,0.5],[1,0.5]];portConstraint=eastwest;whiteSpace=wrap;html=1;" vertex="1" parent="KQXaLnufDHrNjY7VKexa-14">
          <mxGeometry y="108" width="200" height="62" as="geometry" />
        </mxCell>
        <mxCell id="KQXaLnufDHrNjY7VKexa-21" value="" style="ellipse;html=1;shape=startState;fillColor=#000000;strokeColor=#ff0000;" vertex="1" parent="1">
          <mxGeometry x="50" y="40" width="30" height="30" as="geometry" />
        </mxCell>
        <mxCell id="KQXaLnufDHrNjY7VKexa-22" value="" style="edgeStyle=orthogonalEdgeStyle;html=1;verticalAlign=bottom;endArrow=open;endSize=8;strokeColor=#ff0000;rounded=0;entryX=-0.015;entryY=1;entryDx=0;entryDy=0;entryPerimeter=0;" edge="1" source="KQXaLnufDHrNjY7VKexa-21" parent="1" target="KQXaLnufDHrNjY7VKexa-2">
          <mxGeometry relative="1" as="geometry">
            <mxPoint x="65" y="190" as="targetPoint" />
            <Array as="points">
              <mxPoint x="65" y="210" />
            </Array>
          </mxGeometry>
        </mxCell>
        <mxCell id="KQXaLnufDHrNjY7VKexa-23" value="start" style="html=1;whiteSpace=wrap;" vertex="1" parent="1">
          <mxGeometry x="80" y="20" width="110" height="50" as="geometry" />
        </mxCell>
        <mxCell id="KQXaLnufDHrNjY7VKexa-26" value="" style="endArrow=classic;html=1;rounded=0;exitX=1;exitY=0.5;exitDx=0;exitDy=0;entryX=-0.025;entryY=0.333;entryDx=0;entryDy=0;entryPerimeter=0;" edge="1" parent="1" source="KQXaLnufDHrNjY7VKexa-2" target="KQXaLnufDHrNjY7VKexa-11">
          <mxGeometry width="50" height="50" relative="1" as="geometry">
            <mxPoint x="400" y="380" as="sourcePoint" />
            <mxPoint x="450" y="330" as="targetPoint" />
          </mxGeometry>
        </mxCell>
        <mxCell id="KQXaLnufDHrNjY7VKexa-27" value="" style="endArrow=classic;html=1;rounded=0;exitX=0.535;exitY=1.016;exitDx=0;exitDy=0;exitPerimeter=0;entryX=0.29;entryY=-0.012;entryDx=0;entryDy=0;entryPerimeter=0;" edge="1" parent="1" source="KQXaLnufDHrNjY7VKexa-13" target="KQXaLnufDHrNjY7VKexa-14">
          <mxGeometry width="50" height="50" relative="1" as="geometry">
            <mxPoint x="400" y="380" as="sourcePoint" />
            <mxPoint x="450" y="330" as="targetPoint" />
            <Array as="points">
              <mxPoint x="630" y="350" />
              <mxPoint x="700" y="350" />
            </Array>
          </mxGeometry>
        </mxCell>
        <mxCell id="KQXaLnufDHrNjY7VKexa-28" value="&lt;div&gt;Input:&lt;/div&gt;&lt;div&gt;+filePath: string&lt;br&gt;&lt;/div&gt;" style="text;html=1;align=center;verticalAlign=middle;resizable=0;points=[];autosize=1;strokeColor=none;fillColor=none;" vertex="1" parent="1">
          <mxGeometry x="385" y="140" width="110" height="40" as="geometry" />
        </mxCell>
        <mxCell id="KQXaLnufDHrNjY7VKexa-29" value="&lt;div&gt;Input:&lt;/div&gt;&lt;div&gt;+filePath: string&lt;br&gt;&lt;/div&gt;" style="text;html=1;align=center;verticalAlign=middle;resizable=0;points=[];autosize=1;strokeColor=none;fillColor=none;" vertex="1" parent="1">
          <mxGeometry x="710" y="300" width="110" height="40" as="geometry" />
        </mxCell>
        <mxCell id="KQXaLnufDHrNjY7VKexa-30" value="visualizer" style="swimlane;fontStyle=1;align=center;verticalAlign=top;childLayout=stackLayout;horizontal=1;startSize=26;horizontalStack=0;resizeParent=1;resizeParentMax=0;resizeLast=0;collapsible=1;marginBottom=0;whiteSpace=wrap;html=1;" vertex="1" parent="1">
          <mxGeometry x="-180" y="370" width="200" height="150" as="geometry" />
        </mxCell>
        <mxCell id="KQXaLnufDHrNjY7VKexa-31" value="+visualizer: VisualizerUtilities" style="text;strokeColor=none;fillColor=none;align=left;verticalAlign=top;spacingLeft=4;spacingRight=4;overflow=hidden;rotatable=0;points=[[0,0.5],[1,0.5]];portConstraint=eastwest;whiteSpace=wrap;html=1;" vertex="1" parent="KQXaLnufDHrNjY7VKexa-30">
          <mxGeometry y="26" width="200" height="54" as="geometry" />
        </mxCell>
        <mxCell id="KQXaLnufDHrNjY7VKexa-32" value="" style="line;strokeWidth=1;fillColor=none;align=left;verticalAlign=middle;spacingTop=-1;spacingLeft=3;spacingRight=3;rotatable=0;labelPosition=right;points=[];portConstraint=eastwest;strokeColor=inherit;" vertex="1" parent="KQXaLnufDHrNjY7VKexa-30">
          <mxGeometry y="80" width="200" height="8" as="geometry" />
        </mxCell>
        <mxCell id="KQXaLnufDHrNjY7VKexa-33" value="&lt;div&gt;+showModel(model)&lt;/div&gt;&lt;div&gt;&lt;br&gt;&lt;/div&gt;" style="text;strokeColor=none;fillColor=none;align=left;verticalAlign=top;spacingLeft=4;spacingRight=4;overflow=hidden;rotatable=0;points=[[0,0.5],[1,0.5]];portConstraint=eastwest;whiteSpace=wrap;html=1;" vertex="1" parent="KQXaLnufDHrNjY7VKexa-30">
          <mxGeometry y="88" width="200" height="62" as="geometry" />
        </mxCell>
        <mxCell id="KQXaLnufDHrNjY7VKexa-34" value="" style="endArrow=classic;html=1;rounded=0;exitX=0;exitY=0.5;exitDx=0;exitDy=0;entryX=0.5;entryY=0;entryDx=0;entryDy=0;" edge="1" parent="1" source="KQXaLnufDHrNjY7VKexa-4" target="KQXaLnufDHrNjY7VKexa-30">
          <mxGeometry width="50" height="50" relative="1" as="geometry">
            <mxPoint x="360" y="193" as="sourcePoint" />
            <mxPoint x="525" y="194" as="targetPoint" />
            <Array as="points">
              <mxPoint x="-80" y="280" />
            </Array>
          </mxGeometry>
        </mxCell>
        <mxCell id="KQXaLnufDHrNjY7VKexa-35" value="&lt;div&gt;Input:&lt;/div&gt;&lt;div&gt;+model: Model&lt;br&gt;&lt;/div&gt;" style="text;html=1;align=center;verticalAlign=middle;resizable=0;points=[];autosize=1;strokeColor=none;fillColor=none;" vertex="1" parent="1">
          <mxGeometry x="5" y="230" width="100" height="40" as="geometry" />
        </mxCell>
        <mxCell id="KQXaLnufDHrNjY7VKexa-36" value="modelProcesser" style="swimlane;fontStyle=1;align=center;verticalAlign=top;childLayout=stackLayout;horizontal=1;startSize=26;horizontalStack=0;resizeParent=1;resizeParentMax=0;resizeLast=0;collapsible=1;marginBottom=0;whiteSpace=wrap;html=1;" vertex="1" parent="1">
          <mxGeometry x="50" y="402" width="280" height="148" as="geometry" />
        </mxCell>
        <mxCell id="KQXaLnufDHrNjY7VKexa-37" value="&lt;div&gt;+modelProcessor: ModelProcessor&lt;/div&gt;&lt;div&gt;+extForceFile:string&lt;/div&gt;" style="text;strokeColor=none;fillColor=none;align=left;verticalAlign=top;spacingLeft=4;spacingRight=4;overflow=hidden;rotatable=0;points=[[0,0.5],[1,0.5]];portConstraint=eastwest;whiteSpace=wrap;html=1;" vertex="1" parent="KQXaLnufDHrNjY7VKexa-36">
          <mxGeometry y="26" width="280" height="54" as="geometry" />
        </mxCell>
        <mxCell id="KQXaLnufDHrNjY7VKexa-38" value="" style="line;strokeWidth=1;fillColor=none;align=left;verticalAlign=middle;spacingTop=-1;spacingLeft=3;spacingRight=3;rotatable=0;labelPosition=right;points=[];portConstraint=eastwest;strokeColor=inherit;" vertex="1" parent="KQXaLnufDHrNjY7VKexa-36">
          <mxGeometry y="80" width="280" height="8" as="geometry" />
        </mxCell>
        <mxCell id="KQXaLnufDHrNjY7VKexa-39" value="&lt;div&gt;+append(ModOpAddExternalLoads(extForceFile))&lt;/div&gt;&lt;div&gt;+append(ModOpAddReserves())&lt;br&gt;&lt;/div&gt;" style="text;strokeColor=none;fillColor=none;align=left;verticalAlign=top;spacingLeft=4;spacingRight=4;overflow=hidden;rotatable=0;points=[[0,0.5],[1,0.5]];portConstraint=eastwest;whiteSpace=wrap;html=1;" vertex="1" parent="KQXaLnufDHrNjY7VKexa-36">
          <mxGeometry y="88" width="280" height="60" as="geometry" />
        </mxCell>
        <mxCell id="KQXaLnufDHrNjY7VKexa-40" value="" style="endArrow=classic;html=1;rounded=0;exitX=0.46;exitY=1.024;exitDx=0;exitDy=0;exitPerimeter=0;" edge="1" parent="1" source="KQXaLnufDHrNjY7VKexa-4">
          <mxGeometry width="50" height="50" relative="1" as="geometry">
            <mxPoint x="160" y="289" as="sourcePoint" />
            <mxPoint x="190" y="400" as="targetPoint" />
            <Array as="points">
              <mxPoint x="240" y="360" />
              <mxPoint x="190" y="360" />
            </Array>
          </mxGeometry>
        </mxCell>
        <mxCell id="KQXaLnufDHrNjY7VKexa-41" value="&lt;div&gt;Input:&lt;/div&gt;&lt;div&gt;+model: Model&lt;br&gt;&lt;/div&gt;" style="text;html=1;align=center;verticalAlign=middle;resizable=0;points=[];autosize=1;strokeColor=none;fillColor=none;" vertex="1" parent="1">
          <mxGeometry x="90" y="330" width="100" height="40" as="geometry" />
        </mxCell>
        <mxCell id="KQXaLnufDHrNjY7VKexa-42" value="MocoInverse" style="swimlane;fontStyle=1;align=center;verticalAlign=top;childLayout=stackLayout;horizontal=1;startSize=26;horizontalStack=0;resizeParent=1;resizeParentMax=0;resizeLast=0;collapsible=1;marginBottom=0;whiteSpace=wrap;html=1;" vertex="1" parent="1">
          <mxGeometry x="440" y="490" width="200" height="270" as="geometry" />
        </mxCell>
        <mxCell id="KQXaLnufDHrNjY7VKexa-43" value="&lt;div&gt;+inverse: MocoInverse&lt;/div&gt;&lt;div&gt;+inverseName: string&lt;/div&gt;&lt;div&gt;+JointPositionFile: string&lt;/div&gt;&lt;div&gt;+startTime: double&lt;/div&gt;&lt;div&gt;+stopTime: double&lt;/div&gt;&lt;div&gt;+stepTime:double&lt;br&gt;&lt;/div&gt;&lt;div&gt;&lt;br&gt;&lt;/div&gt;" style="text;strokeColor=none;fillColor=none;align=left;verticalAlign=top;spacingLeft=4;spacingRight=4;overflow=hidden;rotatable=0;points=[[0,0.5],[1,0.5]];portConstraint=eastwest;whiteSpace=wrap;html=1;" vertex="1" parent="KQXaLnufDHrNjY7VKexa-42">
          <mxGeometry y="26" width="200" height="124" as="geometry" />
        </mxCell>
        <mxCell id="KQXaLnufDHrNjY7VKexa-44" value="" style="line;strokeWidth=1;fillColor=none;align=left;verticalAlign=middle;spacingTop=-1;spacingLeft=3;spacingRight=3;rotatable=0;labelPosition=right;points=[];portConstraint=eastwest;strokeColor=inherit;" vertex="1" parent="KQXaLnufDHrNjY7VKexa-42">
          <mxGeometry y="150" width="200" height="8" as="geometry" />
        </mxCell>
        <mxCell id="KQXaLnufDHrNjY7VKexa-45" value="&lt;div&gt;+setName(inverseName)&lt;/div&gt;&lt;div&gt;+setModel(modelProcessor);&lt;/div&gt;&lt;div&gt;+setKinematics(JointPositionFile)&lt;/div&gt;&lt;div&gt;+set_mesh_interval(stepTime)&lt;/div&gt;&lt;div&gt;+set_initial_time(startTime)&lt;/div&gt;&lt;div&gt;+set_final_time(stopTime)&lt;br&gt;&lt;/div&gt;&lt;div&gt;&lt;br&gt;&lt;/div&gt;" style="text;strokeColor=none;fillColor=none;align=left;verticalAlign=top;spacingLeft=4;spacingRight=4;overflow=hidden;rotatable=0;points=[[0,0.5],[1,0.5]];portConstraint=eastwest;whiteSpace=wrap;html=1;" vertex="1" parent="KQXaLnufDHrNjY7VKexa-42">
          <mxGeometry y="158" width="200" height="112" as="geometry" />
        </mxCell>
        <mxCell id="KQXaLnufDHrNjY7VKexa-46" style="edgeStyle=orthogonalEdgeStyle;rounded=0;orthogonalLoop=1;jettySize=auto;html=1;entryX=0;entryY=0.5;entryDx=0;entryDy=0;" edge="1" parent="1" source="KQXaLnufDHrNjY7VKexa-37" target="KQXaLnufDHrNjY7VKexa-43">
          <mxGeometry relative="1" as="geometry" />
        </mxCell>
        <mxCell id="KQXaLnufDHrNjY7VKexa-47" value="&lt;div&gt;Input:&lt;/div&gt;&lt;div&gt;+modelProcesser:&lt;/div&gt;&lt;div&gt;ModelProcessor&lt;br&gt;&lt;/div&gt;" style="text;html=1;align=center;verticalAlign=middle;resizable=0;points=[];autosize=1;strokeColor=none;fillColor=none;" vertex="1" parent="1">
          <mxGeometry x="370" y="390" width="120" height="60" as="geometry" />
        </mxCell>
        <mxCell id="KQXaLnufDHrNjY7VKexa-52" value="MocoInverseSolution" style="swimlane;fontStyle=1;align=center;verticalAlign=top;childLayout=stackLayout;horizontal=1;startSize=26;horizontalStack=0;resizeParent=1;resizeParentMax=0;resizeLast=0;collapsible=1;marginBottom=0;whiteSpace=wrap;html=1;" vertex="1" parent="1">
          <mxGeometry x="120" y="630" width="200" height="150" as="geometry" />
        </mxCell>
        <mxCell id="KQXaLnufDHrNjY7VKexa-53" value="+solution: MocoInverseSolution" style="text;strokeColor=none;fillColor=none;align=left;verticalAlign=top;spacingLeft=4;spacingRight=4;overflow=hidden;rotatable=0;points=[[0,0.5],[1,0.5]];portConstraint=eastwest;whiteSpace=wrap;html=1;" vertex="1" parent="KQXaLnufDHrNjY7VKexa-52">
          <mxGeometry y="26" width="200" height="54" as="geometry" />
        </mxCell>
        <mxCell id="KQXaLnufDHrNjY7VKexa-54" value="" style="line;strokeWidth=1;fillColor=none;align=left;verticalAlign=middle;spacingTop=-1;spacingLeft=3;spacingRight=3;rotatable=0;labelPosition=right;points=[];portConstraint=eastwest;strokeColor=inherit;" vertex="1" parent="KQXaLnufDHrNjY7VKexa-52">
          <mxGeometry y="80" width="200" height="8" as="geometry" />
        </mxCell>
        <mxCell id="KQXaLnufDHrNjY7VKexa-55" value="&lt;div&gt;+solve()&lt;/div&gt;&lt;div&gt;&lt;br&gt;&lt;/div&gt;" style="text;strokeColor=none;fillColor=none;align=left;verticalAlign=top;spacingLeft=4;spacingRight=4;overflow=hidden;rotatable=0;points=[[0,0.5],[1,0.5]];portConstraint=eastwest;whiteSpace=wrap;html=1;" vertex="1" parent="KQXaLnufDHrNjY7VKexa-52">
          <mxGeometry y="88" width="200" height="62" as="geometry" />
        </mxCell>
        <mxCell id="KQXaLnufDHrNjY7VKexa-56" style="edgeStyle=orthogonalEdgeStyle;rounded=0;orthogonalLoop=1;jettySize=auto;html=1;entryX=1.01;entryY=0.722;entryDx=0;entryDy=0;entryPerimeter=0;" edge="1" parent="1" source="KQXaLnufDHrNjY7VKexa-42" target="KQXaLnufDHrNjY7VKexa-53">
          <mxGeometry relative="1" as="geometry" />
        </mxCell>
        <mxCell id="KQXaLnufDHrNjY7VKexa-57" value="&lt;div&gt;Input:&lt;/div&gt;&lt;div&gt;+MocoInverse&lt;/div&gt;" style="text;html=1;align=center;verticalAlign=middle;resizable=0;points=[];autosize=1;strokeColor=none;fillColor=none;" vertex="1" parent="1">
          <mxGeometry x="330" y="710" width="100" height="40" as="geometry" />
        </mxCell>
      </root>
    </mxGraphModel>
  </diagram>
</mxfile>
